<?xml version="1.0" encoding="iso-8859-1"?>
<!-- Generator: Adobe Illustrator 15.1.0, SVG Export Plug-In . SVG Version: 6.00 Build 0)  -->
<!DOCTYPE svg PUBLIC "-//W3C//DTD SVG 1.1//EN" "http://www.w3.org/Graphics/SVG/1.1/DTD/svg11.dtd">
<svg version="1.1" id="Layer_1" xmlns="http://www.w3.org/2000/svg" xmlns:xlink="http://www.w3.org/1999/xlink" x="0px" y="0px"
	 width="3069.344px" height="370px" viewBox="0 0 3069.344 370" style="enable-background:new 0 0 3069.344 370;"
	 xml:space="preserve">
<title>Layer 1</title>
<g id="svg_297" style="opacity:0.5;">
	<path id="svg_298" style="fill:#E2E2E2;" d="M1488.561,98.234l-0.74-22.693c-12.601,3.359-25.19-1.68-39.471,4.199
		c8.4,5.879,0,26.033-7.56,31.072c-23.51,14.277-40.31-29.393-57.101-36.111c-10.92-4.199-30.239-5.039-39.479,1.68
		c-15.95,10.918-9.229,15.117-28.55,5.039c-10.08-5.039-19.32-6.719-30.23-3.359c-8.399,2.52-29.399,20.155-37.79,19.316
		c-15.12-1.681-5.88-22.676-21-5.879c-10.92,11.757-9.239,11.757-24.35,10.077c0-3.359,6.72-16.796,4.2-20.995
		c-4.2-5.879-24.36,1.68-31.92,0c-5.881-0.84-12.59-7.559-18.471-7.559c-6.72,0-6.72,4.199-12.6,5.879
		c-15.96,5.039-26.87-7.559-41.99-6.719c-7.56,0.84-26.029,5.879-32.75,10.078c-14.279,9.238-10.08,13.437-28.56,10.078
		c-12.601-2.52-24.351-10.918-36.11-8.398c-6.718,1.68-65.504,32.752-56.267,3.359c10.918-0.84,23.516-7.559,15.116-17.637
		c-9.237-11.757-34.432-10.078-47.028-16.796c-5.039,20.155-19.315,35.272-40.312,26.034c-0.84,1.68-3.358,5.039-6.719,5.039
		c-10.918-0.84-15.957-12.598-27.714-3.359c-12.597,10.078-4.199,20.995-22.675,4.199C806.734,73.86,802.536,76.38,788.26,72.18
		c-10.918-2.52-22.676-12.598-31.913-11.758c-5.879,0.84-8.397,6.719-15.956,6.719c-5.879,0-9.237-3.359-15.116-5.039
		c-2.521-0.84-7.56-2.52-10.918-2.52c-8.398,0-5.038,0.84-11.758,5.879c-13.437,9.238-41.989,15.117-59.626,10.078
		c0,7.559,0.84,14.277-1.68,20.995c-20.996-7.558-43.67-12.597-63.826-20.995c-6.718-2.52-20.995-10.078-26.873-4.199
		c-6.719,5.039,1.681,16.797-1.68,26.035c-9.238-2.521-20.156,0-31.073-0.841c-4.199-0.84-10.077-5.038-15.116-3.359
		c-4.198,2.52-1.68,9.238-5.879,12.597c-7.559,6.719-18.477,5.039-27.714,2.52c-12.597-4.199-16.796-8.397-30.232-7.558
		c-11.758,0-24.354,2.52-31.912-8.397c-0.84-2.52-5.039-13.438-5.039-15.957c-2.521-5.879-3.359-4.199-2.521-12.598
		c0.84-14.276,7.56-15.115-8.397-17.636c-9.238-0.84-20.155-2.52-28.554,0.84c-4.198,2.52-25.194,17.636-25.194,21.835
		c-0.84,7.559,19.315,14.277,24.354,16.797c-12.598,5.039-5.879,16.796-2.52,26.873c-0.84,0.84-1.68,0.84-2.521,2.52
		c-14.276-38.631-53.292-21.55-75.468-11.227c-13.726,6.39-29.697,16.125-48.173,11.087c-20.995-5.879-14.088-9.938-18.287-25.054
		c-10.918,2.52-19.316,7.559-30.233,7.559c-9.237,0-16.796-4.2-26.034-5.879c-7.559-2.52-13.438-1.68-20.995-1.68
		c-12.597-0.84-14.276-3.359-24.354-9.238c-8.398-5.879-2.52-5.039-10.918-5.039c-5.878,0.84-11.757,5.879-17.636,6.719
		c-11.757,1.68-14.276-3.359-24.354-6.719c-5.039-2.52-2.52-4.199-8.398-2.52c-7.558,0.84-18.475,12.598-23.514,17.637
		C21.515,96.536-2.84,111.652-2,121.73l2.423,245.551L1494.24,374l1574.27-6.393l0.379-255.132
		c-9.959,9.124-63.869,11.612-70.51-4.978c-5.809-13.271,4.15-14.102-10.779-23.226c-9.131-6.636-23.23-19.079-35.67-16.591
		c0,19.079-17.42,29.862-34.01,30.692c-13.27,0.829-23.23-5.807-34.01-6.636c-7.471-0.83-9.951,4.146-18.25,6.636
		c-5.811,0.829-10.781,0-15.76-1.659c-9.131-3.318-9.951-3.318-18.25-3.318c-8.301,0-15.762,2.488-24.891,0
		c-6.631-1.658-12.439-7.465-18.24-9.124c-1.66,5.807-11.619,33.18-24.061,24.885c-4.148-2.488,0.83-12.442-3.32-16.59
		c-7.459-7.466-10.779,0-16.59,4.977c-16.59,12.442-43.959,19.079-59.719,1.659c-6.641-7.465-3.32-9.124-11.611-12.442
		c-5.809-1.659-13.279,0-19.908-1.659c15.76,24.885-29.861,33.18-29.041,4.978c-9.119-0.83-14.93-8.296-23.221-10.784
		c-5.809-1.658-31.52-4.977-37.33-2.488c-12.439,5.807-11.609,40.646-33.18,23.227c-15.76-13.272,18.25-32.352-5.809-38.987
		c-15.762-4.977-42.301-0.829-48.111,15.761c3.32,0.83,17.42,19.908,19.08,24.056c1.66,7.466-9.949,14.102-19.08,13.271
		c-9.949-0.83-11.609-12.443-20.73-17.42c-9.959-5.807-26.549-7.466-38.158-9.954c-0.83,6.636,0.83,19.079-5.811,22.396
		c-6.641,4.147-21.57-5.807-27.371-8.295c-13.27-6.636-24.059-5.807-31.52-20.737c-5.811,3.317-2.49,4.977-4.15,8.295
		c-1.66,1.659-0.83,7.465-2.49,9.954c-2.488,4.147-11.609,8.295-15.76,10.783c-7.459,4.978-14.1,9.954-21.568,4.147
		c-9.121-5.807-6.631-26.544-15.762-33.18c-17.42-12.443-14.93,11.613-19.898,18.249c-8.301,12.442-25.721,1.659-34.84-4.978
		c-7.471-4.977-5.811-7.465-18.25-9.954c-10.791-1.659-22.4-4.147-34.012-4.977c-13.27-0.829-9.129-2.488-16.59,10.783
		c-6.639,11.613-0.83,5.807-11.619,6.636c-9.121,0-26.541,1.659-26.541-9.124c0-6.636,11.611-10.783,9.951-18.249
		c-0.82-2.488-9.121-5.807-10.781-7.466c-17.42,12.442-32.35,24.886-52.26,34.01c20.74,35.669-38.979,23.226-40.639,9.124
		c-2.49-15.76,16.59-19.907,21.559-29.861c3.32-6.637-0.83-11.613-1.66-18.249c-0.818-16.591,0.83-19.079-19.898-14.931
		c-14.93,2.488-27.381,8.295-40.65,14.931c-14.93,7.466-10.779,9.954-6.641,22.396c5.811,14.102,5.811,8.295,19.91,14.102
		c-4.98,13.272-33.18,21.567-46.449,18.249c-4.15-0.83-11.611-3.318-14.102-6.637c-1.658-3.317,0.83-11.612,0-12.441
		c-4.979-5.807-24.059-1.659-31.52,2.488c-7.469,4.147-9.129,14.931-17.42,19.078c-14.109,7.466-18.25-0.829-25.719-9.954
		c-8.291-9.124-5.801-4.977-19.08-9.124c-10.781-2.488-9.121-5.807-21.561-3.318c-14.93,2.488-29.029,10.783-44.801,7.466
		c8.301,0,4.98,17.419-2.479,17.419c-8.301,0-3.32-6.636-4.98-8.295c-3.32-3.318,1.66-4.147-4.98-7.465
		c-5.811-3.318-23.23-3.318-30.689-6.637c-5.811-2.488-6.641-4.977-16.59-4.147c-8.291,0-16.59,2.489-24.881,3.318
		c5.801,11.612-38.16,26.544-33.189,0c-6.631,4.147-14.1,6.636-22.391,5.807c-5.811-0.83-11.619-8.295-17.42-8.295
		c-7.471,0.829-29.859,23.226-24.891-1.659c-9.119,4.147-24.879,8.295-30.689-2.488c-19.08,9.953-30.689,29.861-48.94,14.102
		c-6.63-6.637-2.49-8.295-14.1-8.295c-8.29,0-15.76,4.146-23.23,4.977"/>
	<g id="svg_299">
		<path id="svg_300" style="fill:#698E8D;" d="M1489.72,97.922c-0.239-7.564-0.489-15.129-0.729-22.693
			c-0.021-0.66-0.391-1.021-1.061-0.891c-13.38,2.557-26.359-0.103-39.47,4.199c-0.82,0.269-1.78,1.48-1.01,2.275
			c12.51,12.832-7.74,34.846-21.851,30.377c-6.399-2.027-11.689-8.095-16.09-12.84c-7.89-8.511-14.41-19.639-25.16-24.85
			c-9.59-4.651-27.88-5.514-37.27,0.003c-5.2,3.052-9.641,6.831-14.11,10.867c-5.489,4.974-25.2-7.745-31.439-8.98
			c-12.23-2.421-22.37,4.323-32.05,10.511c-6.87,4.39-15.58,11.557-24.261,9.57c-6.68-1.529-4.68-8.726-9.22-11.479
			c-4.29-2.6-13.78,10.866-15.38,12.601c-4.94,5.345-8.26,4.674-13.88,4.184c-4.75-0.416-0.83-7.793-0.311-9.38
			c1.04-3.144,2.931-8.364,1.12-11.682c-3.59-6.61-22.46-0.798-27.38-0.241c-8.7,0.982-15.21-6.052-23.41-7.652
			c-5.04-0.985-19.34,6.909-21.91,6.992c-9.319,0.301-19.09-6.105-28.26-7.712c-4.7-0.824-9.58,0.606-14.109,1.631
			c-13.431,3.038-24.041,7.658-34.431,16.594c-12.95,11.134-37.989-8.274-53.56-6.63c-7.276,0.769-15.815,6.564-22.505,9.212
			c-8.173,3.234-24.033,10.692-32.277,4.896c-8.88-6.245,7.571-9.968,10.396-11.903c3.146-2.159,6.354-4.487,6.721-8.661
			c1.678-19.156-39.275-19.553-50.245-24.573c-0.721-0.33-1.597,0.591-1.771,1.198c-5.327,18.663-18.159,32.418-38.54,24.836
			c-0.671-0.25-1.304,0.388-1.631,0.879c-7.467,11.2-17.824-5.336-26.384-2.6c-6.248,1.997-10.377,5.682-14.004,11.039
			c-2.785,4.115-2.675,6.487-8.063,2.578c-5.806-4.212-10.364-9.518-16.685-13.074c-9.845-5.539-22.634-5.521-33.033-10.59
			c-6.106-2.977-16.332-9.963-23.507-5.571c-13.797,8.444-24.696-0.345-38.208-2.021c-8.02-0.994-11.928,6.107-18.468,9.536
			c-15.381,8.064-35.829,10.43-52.646,6.464c-0.824-0.195-1.849,0.653-1.835,1.514c0.031,1.876,1.65,20.002-5.126,17.641
			c-5.318-1.854-10.731-3.453-16.118-5.096c-10.756-3.279-21.525-6.441-32.157-10.112c-10.742-3.709-26.757-15.087-38.004-8.029
			c-5.306,3.329-2.512,25.605-5.568,25.04c-9.831-1.819-19.997,2.098-29.747-1.077c-2.973-0.968-9.541-4.62-12.844-1.936
			c-8.807,7.157,4.767,16.368-20.306,16.946c-10.081,0.233-19.533-5.255-28.794-8.396c-6.885-2.336-14.634-1.372-21.742-1.145
			c-15.502,0.497-22.479-5.01-27.177-19.22c-1.873-5.665-4.087-10.972-3.628-16.999c0.314-4.135,2.487-8.738,2.097-12.854
			c-0.765-8.052-20.951-6.617-25.854-6.867c-12.076-0.616-18.613,4.591-27.677,11.573c-4.837,3.726-13.691,9.041-12.771,16.146
			c0.961,7.408,17.492,12.281,22.857,14.562c-8.697-3.697-3.95,19.666-3.774,20.194c2.684,8.043,2.137,7.003-1.371,0.227
			c-2.713-5.241-7.105-9.254-11.973-12.413c-9.181-5.96-21.337-4.67-31.437-2.535c-11.688,2.47-22.846,7.9-33.557,13.008
			c-11.139,5.312-21.435,9.982-33.951,10.508c-9.794,0.412-24.036-3.646-25.502-14.621c-0.507-3.796-0.963-7.451-1.858-11.188
			c-0.12-0.503-0.555-0.73-1.05-0.596c-13.847,3.768-25.356,9.255-40.165,5.975c-8.891-1.97-17.168-5.296-26.308-6.12
			c-11.72-1.058-20.056-0.271-30.489-6.644c-3.416-2.086-6.718-6-10.313-7.486c-2.534-1.047-7.815,0.39-9.968,1.402
			c-13.296,6.252-20.69,5.955-32.814,0.115c-9.981-4.808-12.924-5.854-22.889,0.893c-10.741,7.271-20.465,17.645-30.656,25.83
			c-6.08,4.882-13.72,11.144-14.341,19.463c-0.627,8.391,0.169,17.135,0.252,25.537c0.724,73.338,1.447,146.676,2.171,220.015
			c0.005,0.486,0.213,0.928,0.769,0.932c91.647,0.412,183.295,0.824,274.942,1.236c193.023,0.867,386.046,1.735,579.068,2.604
			c171.517,0.771,343.037,1.543,514.557,2.314c54,0.242,108,0.633,162.01,0.414c136.391-0.555,272.78-1.109,409.17-1.662
			c199.801-0.812,399.609-1.623,599.42-2.435c152.461-0.619,304.91-1.238,457.359-1.856c23.852-0.098,47.701-0.193,71.561-0.291
			c0.74-0.004,1.561-0.805,1.561-1.557c0.129-85.044,0.26-170.088,0.379-255.132c0-1.022-0.959-1.115-1.648-0.58
			c-13.602,10.519-59.861,12.522-68.951-4.951c-6.17-11.844,1.439-15.188-10.959-23.432c-11.41-7.587-21.42-18.009-36.17-16.763
			c-0.781,0.066-1.5,0.756-1.561,1.557c-1.871,26.499-28.9,32.455-50.109,26.482c-7.121-2.006-16.9-6.581-24.191-2.562
			c-11.129,6.125-19.049,6.006-30.5,1.98c-4.639-1.634-9.039-1.711-13.91-1.742c-8.609-0.054-15.859,1.623-24.619,0.043
			c-6.529-1.18-12.061-6.595-18.24-9.124c-0.75-0.304-1.58,0.571-1.779,1.198c-1.73,5.631-4.111,10.957-7.01,16.083
			c-4.16,7.37-16.66,7.016-16.311-2.507c0.049-1.204,0.109-2.597-0.48-3.648c-3.6-6.416-9.43-7.705-14.59-2.444
			c-17.209,17.559-48.631,24.975-65.709,3.301c-2.121-2.684-2.801-6.35-6.15-7.938c-7.35-3.488-15.541-2.129-23.461-3.258
			c-0.91-0.13-1.91,1.311-1.459,2.11c12.439,22.298-26,29.203-26.801,3.799c-0.01-0.34-0.08-0.801-0.5-0.889
			c-11-2.333-18.85-10.476-30.209-12.148c-8.75-1.29-20.49-4.076-29.23-1.601c-4.85,1.373-7.43,5.152-9.85,9.344
			c-2.09,3.604-3.621,7.558-5.49,11.279c-7.16,14.267-25.221,4.651-22.18-8.736c3.17-13.909,14.109-22.69-5.65-27.996
			c-16.49-4.427-39.26,0.864-46.67,17.465c-0.26,0.586-0.34,1.179,0.299,1.523c5.852,3.198,9.941,10.595,13.73,15.825
			c1.529,2.123,2.939,4.321,4.279,6.567c-2.68,11.631-10.209,15.062-22.6,10.29c-2.529-2.108-4.689-4.562-6.469-7.362
			c-10.66-14.068-30.521-14.582-46.5-17.769c-0.891-0.177-1.771,0.638-1.84,1.514c-0.49,6.615,1.17,23.94-12.73,21.128
			c-5.721-1.158-11.25-4.793-16.361-7.464c-12.779-6.666-25.469-7.859-33.379-21.479c-0.35-0.603-1.109-0.37-1.551-0.026
			c-1.639,1.277-4.33,2.77-4.309,5.353c0.09,13.075-12.67,20.101-22.191,26.388c-24.66,16.278-21.09-28.165-35.299-34.067
			c-6.99-2.907-10.82-0.399-13.58,6.274c-4.291,10.386-5.441,23.036-21.99,18.064c-8.109-2.436-15.84-8.553-22.121-14.144
			c-5.969-5.321-15.699-5.433-23.109-6.703c-9.75-1.674-19.48-2.843-29.35-3.646c-8.41-0.685-10.52,9.751-13.811,15.761
			c-4.09,7.479-45.77,3.748-27.75-15.143c8.75-9.174-0.08-12.268-7.41-17.396c-0.459-0.324-0.969-0.12-1.389,0.18
			c-16.842,12.156-33.16,24.765-51.961,33.817c-0.631,0.304-1.25,1.255-0.881,1.951c3.49,6.484,7.791,16.877-2.578,20.34
			c-4.471,1.491-9.91,0.784-14.41,0.05c-7.262-1.184-16.291-4.257-20.65-10.536c-8.439-12.158,14.4-21.263,19.209-28.933
			c5.791-9.223,0.15-20.603-0.559-30.706c-1.211-17.201-34.131-3.3-41.721-0.173c-8.42,3.468-23.84,7.511-29.27,15.562
			c-3.92,5.804-0.051,11.882,2.059,17.807c2.842,7.994,5.621,10.232,13.381,12.094c13.43,3.227-8.33,13.695-12.42,15.284
			c-6.471,2.519-13.539,3.517-20.439,3.575c-8.711,0.076-20.291-4.436-19.051-15.078c0.061-0.537,0.76-3.84-0.15-4.541
			c-7.4-5.689-18.539-2.5-26.65-0.052c-9.309,2.812-12.738,9.657-18.17,17.19c-16.779,23.306-26.619-7.418-37.738-12.084
			c-7.221-3.029-17.561-5.837-25.41-6.922c-17.531-2.422-34.271,10.803-52.631,8.332c-1.039-0.142-2.35,2.152-1.061,2.444
			c-4.318,11.423-6.068,14.356-5.26,8.801c0-0.519-0.119-1.014-0.379-1.485c-0.42-1.335-0.852-2.714-1.34-3.992
			c-1.84-4.84-8.811-5.891-13.281-6.567c-10.27-1.554-18.92-3.148-28.279-7.454c-9.461-4.352-25.43,1.17-35,2.447
			c-0.75,0.099-1.859,0.953-1.561,1.852c3.34,9.93-34.049,24.454-30.859-0.921c0.109-0.815-0.73-1.124-1.359-0.772
			c-12.092,6.746-20.172,6.511-31.98,0.076c-3.061-1.664-5.59-3.154-9-2.327c-5.75,1.4-25.23,17.517-22.361-1.124
			c0.141-0.881-0.738-1.033-1.359-0.772c-9.5,4.003-22.049,7.938-29.43-2.27c-0.301-0.425-0.811-0.476-1.26-0.219
			c-16.84,9.599-36.26,32.166-52.36,8.269c-5.601-8.322-26.83,1.133-33.61,2.396c-1.24,0.231-1.91,2.724-0.21,2.406
			c8.16-1.52,26.57-10.664,32.699-1.564c3,4.451,6.801,7.177,11.521,9.584c10.861,5.531,23.441-5.98,31.271-11.793
			c9.479-7.042,9.559-4.494,17.68-0.935c4.309,1.886,9.859,0.604,14.24-0.257c7.068-1.392,6.559-4.295,7.809,3.007
			c0.51,2.967,1.141,4.793,4.281,5.368c6.199,1.134,14.41-6.474,19.459-9.088c7.781-4.03,12.781,7.211,20.01,7.377
			c1.76,0.041,20.92-1.077,21.271-3.855c-2.102,16.68,20.539,13.895,29.289,8.055c2.881-1.921,8.49-6.17,7.029-10.505
			c0.33,0.991,23.691-2.849,27.16-2.972c7.031-0.253,14.941,5.469,22.021,6.716c4.729,0.834,23.939,0.697,23.939,8.655
			c0,2.387,1.061,6.259,1.619,8.908c1.371,6.47,10.291,0.191,11.92-1.959c3.221-4.266,3.43-11.291-0.619-14.871
			c11.799,10.438,37.99-10.603,53.549-5.495c6.25,2.051,12.262,4.254,18.781,5.438c6.41,1.163,9.84,8.033,13.799,12.488
			c8.07,9.087,15.92,8.389,25.65,1.832c3.131-2.109,5.32-6.426,7.33-9.559c5.201-8.067,11.471-9.585,19.201-11.403
			c2.52-0.593,18.389-3.592,17.449,4.743c-1.26,11.239,3.801,13.394,14.721,16.185c15.74,4.02,40.619-3.971,48.09-19.128
			c0.24-0.504,0.359-1.276-0.301-1.523c-5.449-2.032-13.1-2.344-16.561-7.442c-4.689-6.916-9.809-18.971-1.109-24.664
			c8.561-5.604,60.16-30.097,62.65-11.907c1.311,9.599,5.66,24.757-2.451,32.251c-3.77,3.481-8.59,5.937-11.898,9.924
			c-4.4,5.291-7.691,12.834-3.291,19.181c7.27,10.469,28.9,13.656,39.76,8.518c3.602-1.705,6.09-6.058,5.781-10.016
			c-0.281-3.522-4.74-11.356-0.461-13.417c9.43-4.536,18.131-10.545,26.66-16.541c5.689-4.002,16.939-16.411,23.91-12.506
			c9.211,5.159,2.99,9.945-1.25,16.479c-4.68,7.217-1.449,12.698,6.41,15.054c5.99,1.792,20.32,3.085,26.09,1.536
			c7.32-1.961,5.07-18.936,14.449-18.576c17.531,0.674,41.361,1.323,55.15,13.242c8.621,7.453,21.381,15.092,33.02,11.745
			c6.82-1.965,8.631-10.543,10.031-16.295c1.35-5.53,3.15-13.771,14.41-6.733c4.059,2.545,5.619,8.982,6.779,13.075
			c1.811,6.434,2.74,12.64,6.75,18.153c7.801,10.721,20.25,0.414,27.881-3.862c9.67-5.425,16.84-10.241,16.76-22.687
			c-0.031-3.82,11.59,6.921,12.279,7.288c6.74,3.585,14.09,5.721,21.02,8.898c6.49,2.976,21.09,14.073,28.531,7.986
			c3.279-2.686,4.309-4.839,5.42-9.009c1.93-7.238-2.441-13.312,7.58-11.488c8.959,1.631,17.74,3.284,26.26,6.574
			c9.359,3.613,12.369,13.551,20.68,18.297c7.369,4.214,17.66-1.707,22.641-6.891c6.32-6.566-3.551-16.045-7.141-20.81
			c-2.789-3.708-5.76-7.387-9.289-10.421c-6.342-5.459,19.1-14.447,21.828-15.068c8.922-2.029,18.33-0.81,26.861,2.1
			c10.65,3.631,1.76,15.629-0.689,21.409c-5.271,12.419,11.85,29.706,21.6,17.569c6.83-8.498,8.43-24.549,21.869-25.148
			c6.9-0.309,13.951,0.711,20.77,1.59c9.721,1.254,15.83,6.128,24.57,9.915c9.83,4.256,7.66,13.318,16.701,18.456
			c5.91,3.361,13.549,2.084,19.16-1.127c3.809-2.185,6.92-7.102,6.549-11.602c-0.6-7.284-4.029-7.41,5.4-7.222
			c13.51,0.271,15.811,8.316,23.83,16.089c9.27,8.978,23.801,8.594,35.41,6.07c6.811-1.481,13.199-4.864,19.1-8.444
			c2.631-1.603,4.051-2.968,6.24-5.068c12.51-11.997,13.16,5.23,13.76,9.458c0.971,6.767,6.85,7.736,12.449,5.075
			c7.74-3.681,11.791-15.362,14.561-22.742c1.68-4.487,6.951,1.705,9.721,3.406c2.959,1.825,4.629,2.399,7.85,3.579
			c7.76,2.848,17.221,0.43,25.15,0.043c8.67-0.424,15.029,3.696,23.26,4.67c12.439,1.473,17.199-5.935,29-6.328
			c8.301-0.277,16.439,5.067,24.619,6.064c7.471,0.913,13.891,0.422,21.08-1.613c10.82-3.066,18.75-11.283,22.65-21.539
			c0.49-1.295,0.701-7.057,3.451-7.288c6.119-0.519,13.709,4.34,18.469,7.315c6.609,4.118,15.689,9.696,20.57,15.749
			c1.949,2.427,0.529,9.962,1.65,13.064c1.539,4.263,3.07,7.666,7.189,9.942c17.221,9.535,45.42,8.859,63.121,0.732
			c2.729-1.254,1.408-3.582,1.398,2.016c0,6.032-0.01,12.064-0.02,18.098c-0.119,77.4-0.23,154.802-0.35,232.204
			c0-1.99,1.99-1.365-2.939-1.346c-4.621,0.02-9.24,0.038-13.861,0.057c-17.729,0.071-35.459,0.145-53.189,0.217
			c-152.449,0.619-304.9,1.238-457.359,1.856c-199.811,0.812-399.621,1.622-599.43,2.435
			c-136.381,0.554-272.771,1.106-409.161,1.662c-54.011,0.219-108.011-0.172-162.011-0.414
			c-171.52-0.771-343.04-1.543-514.558-2.314c-193.022-0.868-386.045-1.736-579.068-2.604
			c-66.175-0.299-132.351-0.596-198.526-0.895c-18.784-0.084-37.567-0.169-56.352-0.253c-4.976-0.022-9.952-0.045-14.928-0.067
			c-2.896-0.013-4.384-0.729-4.367,0.857C0.836,290.59,0.083,214.264-0.67,137.936c-0.047-4.703-0.093-9.406-0.14-14.108
			c-0.106-10.829,10.845-17.917,18.517-23.848c7.222-5.583,31.456-31.76,38.928-25.06c7.457,6.689,22.959,11.61,32.469,7.139
			c14.343-6.744,15.727-4.805,26.912,1.912c5.332,3.203,9.735,5.431,15.938,6.581c10.363,1.923,20.604,0.938,31.15,3.403
			c8.85,2.07,17.143,6.143,26.5,4.24c5.933-1.205,23.698-10.347,25.203-1.531c0.633,3.709,0.621,7.299,2.01,10.831
			c3.572,9.085,22.788,10.937,30.599,9.773c33.977-5.056,86.949-52.438,108.116-1.391c0.333,0.802,1.477,0.19,1.817-0.236
			c0.751-0.753,1.502-1.505,2.253-2.257c0.549-0.411,0.812-1.117,0.583-1.759c-2.64-7.42-9.351-18.925,1.646-24.922
			c0.718-0.392,1.543-1.796,0.474-2.286c-11.275-5.165-31.373-11.306-14.837-25.183c14.378-12.065,28.198-14.42,46.705-11.229
			c9.729,1.678,2.404,17.798,4.401,24.428c2.349,7.797,4.864,17.871,10.21,24.14c6.689,7.844,20.919,5.565,29.717,5.405
			c15.153-0.273,27.729,8.304,42.639,9.74c7.152,0.688,15.177-2.199,18.77-8.654c4.611-8.285,8.982-8.023,17.265-5.327
			c9.019,2.937,21.519-0.927,31.073,0.841c0.744,0.138,1.606-0.436,1.771-1.198c0.885-4.142,0.854-7.388,0.289-11.58
			c-2.686-19.995,17.519-12.673,26.493-9.058c20.81,8.383,42.666,13.622,63.826,20.995c0.738,0.258,1.595-0.531,1.771-1.198
			c1.822-6.949-1.379-19.674,7.754-18.303c8.692,1.305,17.735-0.05,26.302-1.6c8.216-1.486,16.093-4.426,23.46-8.288
			c2.26-1.185,4.688-2.978,6.435-4.802c5.806-6.07,16.02-1.077,22.275,1.254c4.926,1.836,10.454,5.406,15.961,2.809
			c7.127-3.361,14.694-6.343,22.375-3.297c5.639,2.235,10.903,5.447,16.508,7.808c8.907,3.752,18.657,3.407,27.216,8.223
			c6.613,3.722,11.506,12.904,19.26,14.344c1.385,0.257,2.418-0.925,3.246-1.793c1.275-1.337,2.092-3.646,2.988-5.231
			c8.718-15.386,16.998-8.686,25.492-4.349c2.739,1.399,7.895,3.129,10.747,0.585c5.131-4.576,11.433-0.791,18.103-1.193
			c11.374-0.686,20.448-12.297,23.993-22.089c3.155-8.713,14.104-2.275,21.622-0.819c5.09,0.985,10.05,2.165,14.979,3.771
			c3.178,1.095,6.082,2.71,8.715,4.846c0.442,11.784-3.523,17.679-11.898,17.683c-0.536,0.075-1.077,0.703-1.208,1.2
			c-4.932,18.862,15.938,13.546,27.107,9.917c9.381-3.047,18.346-7.252,27.42-11.069c16.33-6.864,32.91,10.948,49.74,8.511
			c3.33-0.482,5.42-1.528,8.029-3.545c8.2-6.336,15.66-10.836,25.69-13.945c9.72-3.01,18.729-4.658,28.851-1.748
			c8.75,2.516,15.609,6.041,24.899,5.742c7.05-0.228,13.43-7.627,20.59-6.229c7.72,1.508,11.9,7.356,20.33,7.031
			c6.8-0.263,13.45-2.192,20.29-2.407c10.76-0.34,2.12,18.321,1.45,22.335c-0.09,0.526,0.29,0.879,0.77,0.931
			c5.57,0.608,11,1.785,16.011-1.125c3.92-2.271,15.739-18.763,18.52-12.506c5.26,11.89,14.16,10.031,24.08,4.634
			c8.38-4.558,15.86-11.127,24.82-14.558c17.05-6.521,27.75,5.62,42.76,9.052c3.03,0.692,5.67-1.979,7.64-3.762
			c13.91-12.581,29.78-14.418,47.3-8.651c18.78,6.182,38.471,59.347,62.631,31.469c4.119-4.754,6.08-11.248,7.22-17.28
			c1.97-10.476-7.7-10.817,10.53-12.134c6.41-0.463,12.859,0.196,19.3-0.269c4.68-0.338,3.93-2.855,4.069,1.711
			c0.211,6.383,0.41,12.766,0.62,19.147C1487.439,100.276,1489.76,99.191,1489.72,97.922L1489.72,97.922z"/>
	</g>
</g>
<path id="svg_350" style="fill:#71AFC0;" d="M1717.629,185.222c2.191,0,4.221-4.443,1.432-4.443
	C1716.87,180.778,1714.84,185.222,1717.629,185.222L1717.629,185.222z"/>
<g>
	<g>
		<g>
			<path style="fill:#88BABC;" d="M2448.95,68.241l-8.15,23.809l23.82,8.149l8.141-23.812L2448.95,68.241z M2443.469,90.748
				l6.791-19.844l1.879,0.642l-6.789,19.844L2443.469,90.748z M2447,91.956l6.789-19.844l1.951,0.67l-6.791,19.841L2447,91.956z
				 M2450.61,93.19l6.791-19.842l1.949,0.668l-6.789,19.843L2450.61,93.19z M2454.209,94.424L2461,74.581l1.959,0.67l-6.789,19.843
				L2454.209,94.424z M2457.821,95.659l6.789-19.843l1.961,0.666l-6.801,19.845L2457.821,95.659z M2463.311,97.536l-1.881-0.643
				l6.789-19.842l1.881,0.643L2463.311,97.536z"/>
		</g>
	</g>
</g>
</svg>
